<?xml version="1.0" encoding="utf-8"?>
<!-- Generator: Adobe Illustrator 23.0.2, SVG Export Plug-In . SVG Version: 6.00 Build 0)  -->
<svg version="1.1" id="Layer_1" xmlns="http://www.w3.org/2000/svg" xmlns:xlink="http://www.w3.org/1999/xlink" x="0px" y="0px"
	 viewBox="0 0 64 80" style="enable-background:new 0 0 64 80;" xml:space="preserve">
<style type="text/css">
	.st0{fill:#FF5C5C;}
	.st1{fill:#FFFFFF;}
	.st2{display:none;}
	.st3{display:inline;fill:#FF5C5C;}
</style>
<g>
	<path class="st0" d="M23,26c0,0-0.1,0-0.1,0C22.9,26,22.9,26,23,26C22.9,26,23,26,23,26z"/>
	<path d="M21.1,27.3l1.7-1.7l0.1,0c0,0,0,0,0,0c0,0,0.1,0,0.1,0l0.1,0.6l0.1,0.1l-0.1-0.1l0,0.1l0,0L21.1,27.3z"/>
</g>
<g>
	<path class="st0" d="M32,27L32,27c-2.7,0-5.3-1-7.3-2.7c-3.8-3.3-4.8-9-2.5-13.4C24.1,7.3,28,5,32.1,5c0.9,0,1.8,0.1,2.6,0.3
		C39.5,6.5,43,11,43,16c0,3.6-1.7,6.9-4.6,9C36.5,26.3,34.3,27,32,27z"/>
	<path class="st1" d="M32,27.3c-2.8,0-5.5-1-7.5-2.8c-3.9-3.4-5-9.3-2.6-13.9c1.9-3.7,5.9-6.1,10.1-6.1c0.9,0,1.8,0.1,2.7,0.3
		c5,1.3,8.6,5.9,8.6,11c0,3.7-1.8,7.2-4.8,9.3C36.7,26.6,34.4,27.3,32,27.3z M32.1,5.4c-3.9,0-7.6,2.2-9.5,5.7
		c-2.3,4.3-1.3,9.7,2.4,12.9c1.9,1.7,4.4,2.6,7,2.6c2.2,0,4.3-0.7,6.1-1.9c2.8-2,4.5-5.2,4.5-8.7c0-4.8-3.4-9.1-8-10.3
		C33.8,5.5,32.9,5.4,32.1,5.4z"/>
</g>
<g>
	<path class="st0" d="M25.4,41.6L25.4,41.6C25.4,41.6,25.4,41.6,25.4,41.6C25.4,41.6,25.4,41.6,25.4,41.6z"/>
	<polygon points="25.1,41.9 23,38.8 25.7,41.5 25.7,41.5 25.8,41.5 	"/>
</g>
<g>
	<path class="st0" d="M48.7,40.9c0,0,0,0.1,0,0.2c0,0.1,0,0.1-0.1,0.2c0,0,0,0.1-0.1,0.1c-0.1,0.2-0.3,0.3-0.5,0.4c0,0-0.1,0-0.1,0
		c-2.6,0.7-5.2,1.1-7.9,1.4l-7.1,10.4c0,0.1-0.1,0.1-0.1,0.1c0,0,0,0,0,0c0,0-0.1,0.1-0.2,0.1c0,0-0.1,0.1-0.1,0.1
		c-0.1,0-0.1,0.1-0.2,0.1c-0.1,0-0.1,0-0.2,0s-0.1,0-0.2,0c-0.1,0-0.3-0.1-0.4-0.2c0,0-0.1-0.1-0.1-0.1c0,0-0.1,0-0.1-0.1
		c0,0,0,0,0,0L24,43.1c-2.7-0.3-5.3-0.8-7.9-1.4c0,0-0.1,0-0.1,0c-0.2-0.1-0.4-0.2-0.5-0.4c0,0-0.1-0.1-0.1-0.1c0,0,0-0.1-0.1-0.2
		c0,0,0-0.1,0-0.2c-1.4-6.1,1.8-12.4,7.5-14.8c0,0,0.1,0,0.1,0c0.1,0,0.3-0.1,0.4,0c0,0,0.1,0,0.1,0c0,0,0.1,0,0.1,0
		c0,0,0.1,0,0.2,0.1c0,0,0.1,0,0.1,0.1c0,0,0,0,0.1,0c4.7,3.7,11.3,3.7,16.1,0c0,0,0,0,0,0c0,0,0.1-0.1,0.1-0.1c0.1,0,0.1,0,0.2-0.1
		c0,0,0.1,0,0.1,0c0.2,0,0.3,0,0.5,0c0,0,0,0,0.1,0c0,0,0,0,0,0c0,0,0,0,0,0C46.9,28.5,50.1,34.8,48.7,40.9z"/>
	<path class="st1" d="M32,54.4c-0.1,0-0.2,0-0.3,0c-0.2,0-0.3-0.1-0.5-0.2c0,0-0.1-0.1-0.2-0.1c0,0,0,0-0.1-0.1l0,0l-0.1-0.2
		l-7-10.3c-2.6-0.3-5.2-0.8-7.7-1.4l-0.2,0c-0.3-0.1-0.5-0.3-0.7-0.5c0,0-0.1-0.1-0.1-0.2c0,0-0.1-0.1-0.1-0.2c0-0.1,0-0.1-0.1-0.2
		c-1.4-6.3,1.8-12.7,7.8-15.3c0,0,0.1-0.1,0.2-0.1c0.1-0.1,0.3-0.1,0.5,0l0.3,0.1c0.1,0,0.2,0.1,0.2,0.1c0,0,0.1,0,0.1,0.1l0.1,0.1
		c4.6,3.6,11,3.6,15.6,0c0.1-0.1,0.2-0.1,0.3-0.2c0,0,0.1-0.1,0.2-0.1c0,0,0.1,0,0.1,0c0.2,0,0.4,0,0.6,0l0.2,0l0.1,0.1
		c5.9,2.6,9.1,9,7.7,15.2l-0.4-0.1L49,41l-0.4-0.1L49,41c0,0.1,0,0.1-0.1,0.2c0,0.1-0.1,0.1-0.1,0.2c0,0-0.1,0.1-0.1,0.2
		C48.6,41.8,48.3,42,48,42l-0.1,0l0,0c-2.5,0.7-5.2,1.1-7.7,1.4l-7,10.2c0,0-0.1,0.1-0.1,0.2L33,53.9c-0.1,0.1-0.1,0.1-0.2,0.2
		c0,0-0.1,0.1-0.2,0.1c-0.1,0.1-0.2,0.1-0.4,0.1C32.2,54.3,32.1,54.4,32,54.4z M31.5,53.3L31.5,53.3l0.1,0.2
		c0.1,0.1,0.2,0.1,0.3,0.1c0.1,0,0.1,0,0.2,0l0.2,0c0,0,0.1,0,0.1,0l0.1-0.1c0,0,0.1-0.1,0.1-0.1c0-0.1,0.1-0.1,0.1-0.1l7.2-10.5
		l0.2,0c2.6-0.3,5.2-0.8,7.8-1.4l0.1,0c0.1,0,0.3-0.1,0.3-0.2l0.1-0.1c0,0,0-0.1,0-0.1l0-0.1c1.4-5.9-1.7-12-7.3-14.4l-0.1,0
		c-0.1,0-0.2,0-0.3,0c-0.1,0-0.1,0.1-0.2,0.1l-0.1,0.1c-4.9,3.9-11.7,3.9-16.6,0l-0.1-0.1c0,0-0.1,0-0.1,0l-0.1,0
		c-0.1,0-0.2,0-0.3,0l-0.1,0c-5.6,2.4-8.7,8.5-7.3,14.4l0,0.1c0,0,0,0.1,0,0.1l0.1,0.1c0.1,0.1,0.2,0.2,0.3,0.2
		c2.7,0.7,5.3,1.2,7.9,1.4l0.2,0L31.5,53.3z"/>
</g>
<g class="st2">
	<path class="st3" d="M21,28.6l-2.7,3.1l-2.8,6.3l-0.1,1.6l0.2,1.4l6.2,0.9l3,0.6l2,2.4l4.2,6l1.2,1.6l6.9-9.3l1.5-1.3l5.3-0.5
		l1.6-0.8l0.4-4.3l-0.8-3.6l-3.4-4l-3-1.5l-1.7,0.1l-2.8,2.3l-3.7,0.4l-3.9-0.3l-3.2-1.4l-1-1.1c0,0-1.2-0.9-1-0.7
		C23,26.6,21,28.6,21,28.6z"/>
</g>
</svg>
